<?xml version="1.0" encoding="UTF-8" standalone="no"?>
<!-- Created with Inkscape (http://www.inkscape.org/) -->

<svg
   xmlns:dc="http://purl.org/dc/elements/1.1/"
   xmlns:cc="http://creativecommons.org/ns#"
   xmlns:rdf="http://www.w3.org/1999/02/22-rdf-syntax-ns#"
   xmlns:svg="http://www.w3.org/2000/svg"
   xmlns="http://www.w3.org/2000/svg"
   xmlns:xlink="http://www.w3.org/1999/xlink"
   xmlns:sodipodi="http://sodipodi.sourceforge.net/DTD/sodipodi-0.dtd"
   xmlns:inkscape="http://www.inkscape.org/namespaces/inkscape"
   width="64"
   height="64"
   viewBox="0 0 16.933333 16.933334"
   version="1.1"
   id="svg5617"
   sodipodi:docname="kfit_v2.svg"
   inkscape:export-filename="/home/rusty/Dropbox/Coding/Projects/kfit/images/kfit.png"
   inkscape:export-xdpi="96"
   inkscape:export-ydpi="96"
   inkscape:version="0.92.4 (5da689c313, 2019-01-14)">
  <defs
     id="defs5611">
    <linearGradient
       inkscape:collect="always"
       id="linearGradient6800">
      <stop
         style="stop-color:#000000;stop-opacity:1;"
         offset="0"
         id="stop6796" />
      <stop
         style="stop-color:#000000;stop-opacity:0;"
         offset="1"
         id="stop6798" />
    </linearGradient>
    <linearGradient
       inkscape:collect="always"
       id="linearGradient6591">
      <stop
         style="stop-color:#000000;stop-opacity:1;"
         offset="0"
         id="stop6587" />
      <stop
         style="stop-color:#000000;stop-opacity:0;"
         offset="1"
         id="stop6589" />
    </linearGradient>
    <linearGradient
       id="linearGradient1154"
       inkscape:collect="always">
      <stop
         id="stop1142"
         offset="0"
         style="stop-color:#777677;stop-opacity:1" />
      <stop
         style="stop-color:#c0bfbc;stop-opacity:1"
         offset="0.03595668"
         id="stop1144" />
      <stop
         id="stop1146"
         offset="0.12942275"
         style="stop-color:#9a9996;stop-opacity:1" />
      <stop
         style="stop-color:#9a9996;stop-opacity:1"
         offset="0.85130072"
         id="stop1148" />
      <stop
         id="stop1150"
         offset="0.94516677"
         style="stop-color:#c0bfbc;stop-opacity:1" />
      <stop
         id="stop1152"
         offset="1"
         style="stop-color:#77767b;stop-opacity:1" />
    </linearGradient>
    <linearGradient
       inkscape:collect="always"
       xlink:href="#linearGradient1154"
       id="linearGradient6575"
       gradientUnits="userSpaceOnUse"
       gradientTransform="matrix(0.03247201,0,0,0.04887922,-1.5607612,318.39998)"
       x1="90.03611"
       y1="-469.40961"
       x2="536.59637"
       y2="-468.45273" />
    <linearGradient
       inkscape:collect="always"
       xlink:href="#linearGradient6591"
       id="linearGradient6593"
       x1="8.1138926"
       y1="305.03796"
       x2="12.510395"
       y2="305.3364"
       gradientUnits="userSpaceOnUse" />
    <linearGradient
       inkscape:collect="always"
       xlink:href="#linearGradient6800"
       id="linearGradient6802"
       x1="32.973698"
       y1="290.74921"
       x2="22.225"
       y2="274.37811"
       gradientUnits="userSpaceOnUse" />
  </defs>
  <sodipodi:namedview
     id="base"
     pagecolor="#ffffff"
     bordercolor="#666666"
     borderopacity="1.0"
     inkscape:pageopacity="0.0"
     inkscape:pageshadow="2"
     inkscape:zoom="22.627417"
     inkscape:cx="28.3653"
     inkscape:cy="37.026184"
     inkscape:document-units="px"
     inkscape:current-layer="layer5"
     showgrid="false"
     units="px"
     inkscape:window-width="3200"
     inkscape:window-height="1576"
     inkscape:window-x="0"
     inkscape:window-y="54"
     inkscape:window-maximized="1" />
  <metadata
     id="metadata5614">
    <rdf:RDF>
      <cc:Work
         rdf:about="">
        <dc:format>image/svg+xml</dc:format>
        <dc:type
           rdf:resource="http://purl.org/dc/dcmitype/StillImage" />
        <dc:title />
      </cc:Work>
    </rdf:RDF>
  </metadata>
  <g
     inkscape:label="Layer 1"
     inkscape:groupmode="layer"
     id="layer1"
     style="display:inline"
     transform="translate(0,-280.06665)"
     sodipodi:insensitive="true">
    <rect
       style="display:inline;opacity:1;vector-effect:none;fill:url(#linearGradient6575);fill-opacity:1;stroke:none;stroke-width:0.03842155;stroke-linecap:butt;stroke-linejoin:miter;stroke-miterlimit:4;stroke-dasharray:none;stroke-dashoffset:0;stroke-opacity:1;marker:none;marker-start:none;marker-mid:none;marker-end:none;paint-order:normal;enable-background:new"
       id="rect1134-1"
       width="14.54746"
       height="14.859282"
       x="1.3161262"
       y="281.57468"
       rx="1.3224981"
       ry="1.1430217" />
    <rect
       ry="1.0182456"
       rx="1.3224977"
       y="280.63351"
       x="1.3161198"
       height="13.746313"
       width="14.547481"
       id="rect1136-5"
       style="display:inline;opacity:1;vector-effect:none;fill:#e6e6e6;fill-opacity:1;stroke:none;stroke-width:0.03626384;stroke-linecap:butt;stroke-linejoin:miter;stroke-miterlimit:4;stroke-dasharray:none;stroke-dashoffset:0;stroke-opacity:1;marker:none;marker-start:none;marker-mid:none;marker-end:none;paint-order:normal;enable-background:new" />
  </g>
  <g
     inkscape:groupmode="layer"
     id="layer2"
     inkscape:label="K"
     transform="translate(0,-280.06665)"
     style="display:inline" />
  <g
     inkscape:groupmode="layer"
     id="layer5"
     inkscape:label="Curve">
    <path
       sodipodi:nodetypes="ccc"
       inkscape:connector-curvature="0"
       id="path6304"
       d="M 3.7393103,13.672533 C 3.7438729,6.924012 13.616793,8.0286365 13.55356,1.1148231 v 0"
       style="display:inline;fill:none;fill-opacity:1;stroke:#000000;stroke-width:2.82398582;stroke-linecap:butt;stroke-linejoin:miter;stroke-miterlimit:4;stroke-dasharray:none;stroke-opacity:1" />
    <path
       style="fill:#ff0000;fill-opacity:1;stroke:#000000;stroke-width:0.44194174;stroke-miterlimit:4;stroke-dasharray:none;stroke-opacity:1"
       d="m 8.8055699,51.433081 c 0.00302,-1.035248 0.1573879,-2.907309 0.3361849,-4.076912 1.0813872,-7.073907 4.7845512,-12.778568 11.5735332,-17.828831 2.280363,-1.696342 4.219137,-2.924383 9.302874,-5.892544 4.584138,-2.676468 6.469111,-3.874988 8.396893,-5.338987 4.243492,-3.222601 6.450496,-6.432532 7.199613,-10.4713269 0.161808,-0.8723678 0.307818,-2.4734646 0.312796,-3.429991 l 6e-4,-0.115428 3.900136,-0.028417 c 2.145075,-0.01563 4.53156,-0.040917 5.303301,-0.056195 l 1.403165,-0.027778 v 0.6705154 c 0,2.99073 -0.596325,6.3747915 -1.596629,9.0606575 -1.944376,5.220733 -5.412154,9.484179 -11.020808,13.549489 -2.054679,1.489289 -3.989028,2.705136 -8.507378,5.347364 -3.888127,2.273688 -4.795918,2.827108 -6.5107,3.969143 -1.162919,0.774498 -2.485844,1.752666 -3.366053,2.488853 -0.751949,0.628915 -1.947077,1.799474 -2.511627,2.459995 -2.294816,2.684925 -3.411657,5.575271 -3.551078,9.190063 l -0.02855,0.740252 H 14.1234 8.8049582 Z"
       id="path5548"
       inkscape:connector-curvature="0"
       transform="scale(0.26458334)" />
    <path
       style="fill:#ff0000;fill-opacity:1;stroke:#000000;stroke-width:0.44194174;stroke-miterlimit:4;stroke-dasharray:none;stroke-opacity:1"
       d="m 9.0456311,51.145819 c 0.01219,-0.151917 0.033169,-0.524806 0.04662,-0.828641 0.2093038,-4.727709 1.5682999,-8.986233 4.0714139,-12.758102 1.590815,-2.397156 3.822552,-4.774682 6.468866,-6.891448 2.534739,-2.027518 4.587956,-3.35906 10.761281,-6.978851 4.772263,-2.798264 6.774147,-4.091803 8.691629,-5.616186 3.781713,-3.006434 5.852126,-6.027945 6.659936,-9.7193543 0.195904,-0.8952135 0.403658,-2.7024551 0.403658,-3.5114066 v -0.296067 l 0.629767,-0.02881 c 0.346372,-0.015845 1.614192,-0.030127 2.817379,-0.031737 1.203186,-0.00161 3.201868,-0.0191 4.441514,-0.038866 1.239647,-0.019767 2.261602,-0.029054 2.271011,-0.020638 0.03326,0.029743 -0.0843,2.3470024 -0.151118,2.9789231 -0.828371,7.8339748 -4.499119,13.9328838 -11.597345,19.2688698 -2.382948,1.791346 -4.210314,2.948537 -10.343635,6.55017 -4.035537,2.369764 -5.505143,3.310271 -7.467937,4.779269 -1.239143,0.927403 -1.740492,1.362436 -2.854826,2.477207 -1.132037,1.132481 -1.570765,1.655113 -2.266263,2.699668 -1.478409,2.220395 -2.267006,4.721774 -2.379036,7.546155 l -0.02761,0.696059 H 14.122202 9.0234675 Z"
       id="path5550"
       inkscape:connector-curvature="0"
       transform="scale(0.26458334)" />
    <path
       style="fill:#ff0000;fill-opacity:1;stroke:#000000;stroke-width:0.44194174;stroke-miterlimit:4;stroke-dasharray:none;stroke-opacity:1"
       d="M 9.3090432,50.659683 C 9.4330806,48.368297 9.6398337,46.89449 10.089128,45.09897 11.52404,39.364616 14.877633,34.611322 20.582706,30.225653 c 2.140498,-1.645469 4.028177,-2.850355 9.788529,-6.247919 5.5216,-3.256744 7.348228,-4.457068 9.489445,-6.235759 0.870072,-0.722762 2.481571,-2.338958 3.080516,-3.089495 1.573757,-1.972074 2.584419,-4.070763 3.050999,-6.3355492 0.153408,-0.7446451 0.330885,-2.1726368 0.363798,-2.9271474 l 0.02717,-0.6227355 1.525344,-0.029128 c 0.838939,-0.016021 2.441886,-0.030692 3.562103,-0.032604 1.120218,-0.00191 2.613494,-0.018484 3.318391,-0.036827 0.704897,-0.018344 1.283996,-0.031695 1.286886,-0.02967 0.01226,0.00859 -0.07175,1.6028632 -0.115475,2.1912932 -0.200354,2.6963365 -0.872822,5.5094569 -1.906219,7.9742679 -2.1512,5.130928 -6.16598,9.532227 -12.46765,13.667957 -1.432929,0.940419 -3.26071,2.054277 -6.618629,4.033423 -5.182887,3.054775 -6.450776,3.864134 -8.57367,5.473014 -1.131655,0.85765 -1.441285,1.131897 -2.674204,2.368618 -1.433177,1.437595 -2.044908,2.215092 -2.854437,3.627923 -1.079568,1.88412 -1.740312,4.240278 -1.837335,6.551787 l -0.02829,0.673961 H 14.139856 9.2797372 Z"
       id="path5552"
       inkscape:connector-curvature="0"
       transform="scale(0.26458334)" />
    <path
       style="fill:#ff0000;fill-opacity:1;stroke:#000000;stroke-width:0.44194174;stroke-miterlimit:4;stroke-dasharray:none;stroke-opacity:1"
       d="m 9.5444957,50.703877 c 0.18243,-3.154556 0.5697453,-5.237031 1.4363703,-7.722932 1.660179,-4.762193 4.983057,-8.983567 10.087975,-12.815734 2.197561,-1.649667 3.248298,-2.311617 10.805476,-6.807298 4.25992,-2.534179 6.260846,-3.867498 8.055849,-5.368022 0.668921,-0.559181 1.928201,-1.776075 2.607589,-2.519819 1.936335,-2.119757 3.313372,-4.869473 3.76246,-7.5130094 0.11286,-0.664346 0.246754,-1.8249694 0.276225,-2.3943874 L 46.6043,5.024443 46.918047,4.999036 c 0.172561,-0.013974 2.15333,-0.045811 4.401708,-0.070749 2.248379,-0.024938 4.190987,-0.056522 4.316905,-0.070186 0.20613,-0.022369 0.227114,-0.016734 0.210607,0.056554 -0.01009,0.044769 -0.04868,0.5885258 -0.08577,1.2083491 -0.113146,1.8908887 -0.348117,3.443096 -0.77296,5.1061739 -0.880087,3.445165 -2.331853,6.369559 -4.544984,9.155292 -1.602873,2.017583 -3.819626,4.136129 -6.21696,5.941535 -1.930358,1.453732 -3.887513,2.715327 -7.977049,5.142059 -6.391235,3.792561 -7.39629,4.417054 -9.059805,5.629326 -1.643342,1.197572 -2.124821,1.599648 -3.285608,2.743762 -1.70042,1.675997 -2.392875,2.53548 -3.256131,4.041554 -1.05101,1.833638 -1.744018,4.275397 -1.84188,6.489715 l -0.02686,0.60767 H 14.153891 9.528522 Z"
       id="path5554"
       inkscape:connector-curvature="0"
       transform="scale(0.26458334)" />
    <path
       style="fill:#ff0000;fill-opacity:1;stroke:#000000;stroke-width:0.44194174;stroke-miterlimit:4;stroke-dasharray:none;stroke-opacity:1"
       d="m 9.7774098,50.725974 c 9.989e-4,-0.184201 0.1084238,-1.444818 0.1798293,-2.110271 0.3345669,-3.117943 1.2500289,-6.137623 2.6432039,-8.71869 1.891066,-3.503484 4.727578,-6.630251 8.733564,-9.627253 1.874814,-1.402606 3.028121,-2.143441 7.490912,-4.811839 4.387919,-2.62363 5.126254,-3.0689 6.240521,-3.763494 2.082449,-1.298124 3.715292,-2.44212 4.918508,-3.445985 0.589833,-0.49211 1.880283,-1.72482 2.557534,-2.443101 1.887032,-2.001353 3.301494,-4.632794 3.872224,-7.2038206 0.168691,-0.759921 0.398242,-2.5543917 0.398242,-3.1131826 V 5.248905 l 0.939126,-0.026758 c 1.106283,-0.03152 7.821922,-0.1214345 7.833077,-0.1048753 0.01596,0.023683 -0.109818,1.720575 -0.177727,2.397849 -0.19875,1.9820733 -0.728413,4.2697743 -1.422266,6.1429903 -0.828332,2.236271 -2.045307,4.418087 -3.522302,6.314848 -0.744167,0.955661 -1.25924,1.528049 -2.433278,2.704043 -2.054492,2.057913 -3.668843,3.366172 -6.387349,5.176266 -1.520837,1.012635 -2.854953,1.828488 -8.153825,4.986311 -3.256468,1.940668 -4.546692,2.740833 -5.61266,3.480829 -1.000852,0.694794 -2.411145,1.769045 -2.983107,2.272299 -0.765723,0.673739 -2.595344,2.542041 -3.063929,3.128704 -1.797697,2.2507 -2.840699,4.794699 -3.188825,7.777905 -0.03686,0.315839 -0.06701,0.728502 -0.06701,0.91703 V 50.75912 H 14.17455 c -2.418526,0 -4.3972391,-0.01492 -4.3971402,-0.03315 z"
       id="path5556"
       inkscape:connector-curvature="0"
       transform="scale(0.26458334)" />
  </g>
  <g
     inkscape:groupmode="layer"
     id="layer3"
     inkscape:label="Axis"
     style="display:inline">
    <ellipse
       style="fill:#af5fff;fill-opacity:1;stroke:#000000;stroke-width:0.54608834;stroke-miterlimit:4;stroke-dasharray:none;stroke-opacity:1"
       id="path4921"
       cx="4.2211881"
       cy="3.2641675"
       rx="2.0652201"
       ry="2.0535269" />
    <ellipse
       style="display:inline;fill:#af5fff;fill-opacity:1;stroke:#000000;stroke-width:0.54608828;stroke-miterlimit:4;stroke-dasharray:none;stroke-opacity:1"
       id="path4921-6"
       cx="12.847673"
       cy="11.496069"
       rx="2.0652201"
       ry="2.0535269" />
  </g>
</svg>
